<svg width="1719" height="1544" viewBox="0 0 1719 1544" fill="none" xmlns="http://www.w3.org/2000/svg">
<path d="M1056.84 0H965.85L878.924 203.925L849.788 271.899L806.085 373.862L718.678 572.931L631.271 776.855L461.314 1174.99L310.78 1544L679.83 786.566L844.932 446.692L1025.1 861.692H680.052L520.828 1188.48H1164.66L1315.65 1542H1719L1064.3 11.5614L1063.18 8.95072L1061.32 4.47536L1059.45 0H1056.84ZM912.915 0H810.941C747.294 147.75 699.687 267.93 640.983 402.994C585.533 530.57 529.866 658.258 475.881 786.566L165.102 1544L534.153 786.566L650.695 543.799L772.093 291.321L844.932 140.805L912.915 0ZM752.669 0L658.046 0.149654L656.985 2.18312L320.623 780.469L0 1543.08L373.907 781.711L529.297 461.258L684.686 140.805L752.669 0Z" fill="#CEF17B"/>
</svg>
